<mxfile host="app.diagrams.net" modified="2020-08-18T02:57:34.507Z" agent="5.0 (Macintosh; Intel Mac OS X 10_14_6) AppleWebKit/537.36 (KHTML, like Gecko) Chrome/84.0.4147.125 Safari/537.36" etag="-jOB7kUXKpnmmRBxB8C7" version="13.6.2" type="github">
  <diagram id="sU1SQQGZ8j-YQLzRtZdO" name="Page-1">
    <mxGraphModel dx="946" dy="574" grid="1" gridSize="10" guides="1" tooltips="1" connect="1" arrows="1" fold="1" page="1" pageScale="1" pageWidth="827" pageHeight="1169" math="0" shadow="0">
      <root>
        <mxCell id="0" />
        <mxCell id="1" parent="0" />
        <mxCell id="9c0-M6gE1r-zBI0_PBAT-3" value="" style="edgeStyle=orthogonalEdgeStyle;rounded=0;orthogonalLoop=1;jettySize=auto;html=1;" edge="1" parent="1" source="9c0-M6gE1r-zBI0_PBAT-1" target="9c0-M6gE1r-zBI0_PBAT-2">
          <mxGeometry relative="1" as="geometry" />
        </mxCell>
        <mxCell id="9c0-M6gE1r-zBI0_PBAT-1" value="" style="rounded=1;whiteSpace=wrap;html=1;" vertex="1" parent="1">
          <mxGeometry x="354" y="150" width="120" height="60" as="geometry" />
        </mxCell>
        <mxCell id="9c0-M6gE1r-zBI0_PBAT-2" value="" style="ellipse;whiteSpace=wrap;html=1;rounded=1;" vertex="1" parent="1">
          <mxGeometry x="354" y="280" width="120" height="80" as="geometry" />
        </mxCell>
      </root>
    </mxGraphModel>
  </diagram>
</mxfile>
